<?xml version="1.0" encoding="UTF-8" standalone="no"?>
<!DOCTYPE svg PUBLIC "-//W3C//DTD SVG 1.1//EN"
 "http://www.w3.org/Graphics/SVG/1.1/DTD/svg11.dtd">
<!-- Generated by graphviz version 2.36.0 (20140111.2315)
 -->
<!-- Title: G Pages: 1 -->
<svg width="752pt" height="455pt"
 viewBox="0.00 0.00 752.00 455.00" xmlns="http://www.w3.org/2000/svg" xmlns:xlink="http://www.w3.org/1999/xlink">
<g id="graph0" class="graph" transform="scale(1 1) rotate(0) translate(4 451)">
<title>G</title>
<polygon fill="white" stroke="none" points="-4,4 -4,-451 748,-451 748,4 -4,4"/>
<g id="clust1" class="cluster"><title>cluster_Global</title>
<path fill="none" stroke="gray" d="M20,-98C20,-98 724,-98 724,-98 730,-98 736,-104 736,-110 736,-110 736,-427 736,-427 736,-433 730,-439 724,-439 724,-439 20,-439 20,-439 14,-439 8,-433 8,-427 8,-427 8,-110 8,-110 8,-104 14,-98 20,-98"/>
<text text-anchor="middle" x="372" y="-426.2" font-family="Times,serif" font-size="11.00" fill="gray">Global</text>
</g>
<!-- \\SN_Type_Base -->
<g id="node1" class="node"><title>\\SN_Type_Base</title>
<polygon fill="none" stroke="black" points="711.713,-412 616.287,-412 616.287,-376 711.713,-376 711.713,-412"/>
<text text-anchor="middle" x="664" y="-390.7" font-family="Courier,monospace" font-size="11.00">SN_Type_Base</text>
</g>
<!-- \\SN_Meta_Helper -->
<g id="node4" class="node"><title>\\SN_Meta_Helper</title>
<polygon fill="none" stroke="black" points="500.416,-412 391.584,-412 391.584,-376 500.416,-376 500.416,-412"/>
<text text-anchor="middle" x="446" y="-390.7" font-family="Courier,monospace" font-size="11.00">SN_Meta_Helper</text>
</g>
<!-- \\SN_Type_Base&#45;&gt;\\SN_Meta_Helper -->
<g id="edge1" class="edge"><title>\\SN_Type_Base&#45;&gt;\\SN_Meta_Helper</title>
<path fill="none" stroke="black" d="M616.131,-394C585.209,-394 544.317,-394 510.488,-394"/>
<polygon fill="none" stroke="black" points="510.235,-390.5 500.235,-394 510.235,-397.5 510.235,-390.5"/>
</g>
<!-- \\SN_Theme_Wrapper -->
<g id="node2" class="node"><title>\\SN_Theme_Wrapper</title>
<polygon fill="none" stroke="black" points="724.618,-358 603.382,-358 603.382,-322 724.618,-322 724.618,-358"/>
<text text-anchor="middle" x="664" y="-336.7" font-family="Courier,monospace" font-size="11.00">SN_Theme_Wrapper</text>
</g>
<!-- \\SN_Utilities -->
<g id="node3" class="node"><title>\\SN_Utilities</title>
<polygon fill="none" stroke="black" points="111.713,-385 16.2869,-385 16.2869,-349 111.713,-349 111.713,-385"/>
<text text-anchor="middle" x="64" y="-363.7" font-family="Courier,monospace" font-size="11.00">SN_Utilities</text>
</g>
<!-- \\SN_Form_Fields -->
<g id="node6" class="node"><title>\\SN_Form_Fields</title>
<polygon fill="none" stroke="black" points="292.416,-358 183.584,-358 183.584,-322 292.416,-322 292.416,-358"/>
<text text-anchor="middle" x="238" y="-336.7" font-family="Courier,monospace" font-size="11.00">SN_Form_Fields</text>
</g>
<!-- \\SN_Meta_Helper&#45;&gt;\\SN_Form_Fields -->
<g id="edge2" class="edge"><title>\\SN_Meta_Helper&#45;&gt;\\SN_Form_Fields</title>
<path fill="none" stroke="black" d="M391.682,-380.023C364.382,-372.867 330.959,-364.106 302.352,-356.607"/>
<polygon fill="none" stroke="black" points="303.013,-353.162 292.452,-354.012 301.238,-359.933 303.013,-353.162"/>
</g>
<!-- \\SN_Nav_Walker -->
<g id="node5" class="node"><title>\\SN_Nav_Walker</title>
<polygon fill="none" stroke="black" points="714.814,-304 613.186,-304 613.186,-268 714.814,-268 714.814,-304"/>
<text text-anchor="middle" x="664" y="-282.7" font-family="Courier,monospace" font-size="11.00">SN_Nav_Walker</text>
</g>
<!-- \\Walker_Nav_Menu -->
<g id="node12" class="node"><title>\\Walker_Nav_Menu</title>
<ellipse fill="none" stroke="black" cx="446" cy="-72" rx="82.1791" ry="18"/>
<text text-anchor="middle" x="446" y="-67.8" font-family="Times,serif" font-size="14.00" fill="gray">\Walker_Nav_Menu</text>
</g>
<!-- \\SN_Nav_Walker&#45;&gt;\\Walker_Nav_Menu -->
<g id="edge3" class="edge"><title>\\SN_Nav_Walker&#45;&gt;\\Walker_Nav_Menu</title>
<path fill="none" stroke="black" d="M612.898,-268.901C608.209,-266.055 603.799,-262.774 600,-259 543.238,-202.61 588.559,-146.292 528,-94 525.463,-91.8096 522.729,-89.8352 519.852,-88.0556"/>
<polygon fill="none" stroke="black" points="521.326,-84.8757 510.852,-83.2805 518.045,-91.0592 521.326,-84.8757"/>
</g>
<!-- \\SN_Form_Fields&#45;&gt;\\SN_Utilities -->
<g id="edge4" class="edge"><title>\\SN_Form_Fields&#45;&gt;\\SN_Utilities</title>
<path fill="none" stroke="black" d="M183.521,-348.395C163.954,-351.466 141.754,-354.951 121.899,-358.068"/>
<polygon fill="none" stroke="black" points="121.093,-354.652 111.757,-359.66 122.178,-361.567 121.093,-354.652"/>
</g>
<!-- \\SN_Sidebar -->
<g id="node7" class="node"><title>\\SN_Sidebar</title>
<polygon fill="none" stroke="black" points="705.011,-250 622.989,-250 622.989,-214 705.011,-214 705.011,-250"/>
<text text-anchor="middle" x="664" y="-228.7" font-family="Courier,monospace" font-size="11.00">SN_Sidebar</text>
</g>
<!-- \\SN_WP_Admin -->
<g id="node8" class="node"><title>\\SN_WP_Admin</title>
<polygon fill="none" stroke="black" points="282.113,-412 193.887,-412 193.887,-376 282.113,-376 282.113,-412"/>
<text text-anchor="middle" x="238" y="-390.7" font-family="Courier,monospace" font-size="11.00">SN_WP_Admin</text>
</g>
<!-- \\SN_WP_Admin&#45;&gt;\\SN_Utilities -->
<g id="edge5" class="edge"><title>\\SN_WP_Admin&#45;&gt;\\SN_Utilities</title>
<path fill="none" stroke="black" d="M193.597,-387.187C171.838,-383.771 145.211,-379.591 121.843,-375.923"/>
<polygon fill="none" stroke="black" points="122.131,-372.425 111.709,-374.332 121.045,-379.341 122.131,-372.425"/>
</g>
<!-- \\SN_Settings -->
<g id="node9" class="node"><title>\\SN_Settings</title>
<polygon fill="none" stroke="black" points="490.113,-358 401.887,-358 401.887,-322 490.113,-322 490.113,-358"/>
<text text-anchor="middle" x="446" y="-336.7" font-family="Courier,monospace" font-size="11.00">SN_Settings</text>
</g>
<!-- \\SN_Settings&#45;&gt;\\SN_Form_Fields -->
<g id="edge6" class="edge"><title>\\SN_Settings&#45;&gt;\\SN_Form_Fields</title>
<path fill="none" stroke="black" d="M401.816,-340C373.072,-340 334.817,-340 302.611,-340"/>
<polygon fill="none" stroke="black" points="302.387,-336.5 292.387,-340 302.387,-343.5 302.387,-336.5"/>
</g>
<!-- \\SN_Walker_Comment -->
<g id="node10" class="node"><title>\\SN_Walker_Comment</title>
<polygon fill="none" stroke="black" points="728.218,-196 599.782,-196 599.782,-160 728.218,-160 728.218,-196"/>
<text text-anchor="middle" x="664" y="-174.7" font-family="Courier,monospace" font-size="11.00">SN_Walker_Comment</text>
</g>
<!-- \\Walker_Comment -->
<g id="node13" class="node"><title>\\Walker_Comment</title>
<ellipse fill="none" stroke="black" cx="446" cy="-18" rx="77.3688" ry="18"/>
<text text-anchor="middle" x="446" y="-13.8" font-family="Times,serif" font-size="14.00" fill="gray">\Walker_Comment</text>
</g>
<!-- \\SN_Walker_Comment&#45;&gt;\\Walker_Comment -->
<g id="edge7" class="edge"><title>\\SN_Walker_Comment&#45;&gt;\\Walker_Comment</title>
<path fill="none" stroke="black" d="M613.255,-159.971C608.552,-157.314 604.04,-154.331 600,-151 556.059,-114.77 573.409,-79.3729 528,-45 522.68,-40.9727 516.726,-37.5269 510.526,-34.5825"/>
<polygon fill="none" stroke="black" points="511.88,-31.3551 501.311,-30.6183 509.114,-37.7853 511.88,-31.3551"/>
</g>
<!-- \\SN_Images -->
<g id="node11" class="node"><title>\\SN_Images</title>
<polygon fill="none" stroke="black" points="701.911,-142 626.089,-142 626.089,-106 701.911,-106 701.911,-142"/>
<text text-anchor="middle" x="664" y="-120.7" font-family="Courier,monospace" font-size="11.00">SN_Images</text>
</g>
</g>
</svg>
