<?xml version="1.0" encoding="UTF-8" standalone="no"?>
<!DOCTYPE svg PUBLIC "-//W3C//DTD SVG 1.1//EN"
 "http://www.w3.org/Graphics/SVG/1.1/DTD/svg11.dtd">
<!-- Generated by graphviz version 2.36.0 (20140111.2315)
 -->
<!-- Title: G Pages: 1 -->
<svg width="340pt" height="257pt"
 viewBox="0.00 0.00 340.00 257.00" xmlns="http://www.w3.org/2000/svg" xmlns:xlink="http://www.w3.org/1999/xlink">
<g id="graph0" class="graph" transform="scale(1 1) rotate(0) translate(4 253)">
<title>G</title>
<polygon fill="white" stroke="none" points="-4,4 -4,-253 336,-253 336,4 -4,4"/>
<g id="clust1" class="cluster"><title>cluster_Global</title>
<path fill="none" stroke="gray" d="M212,-8C212,-8 312,-8 312,-8 318,-8 324,-14 324,-20 324,-20 324,-229 324,-229 324,-235 318,-241 312,-241 312,-241 212,-241 212,-241 206,-241 200,-235 200,-229 200,-229 200,-20 200,-20 200,-14 206,-8 212,-8"/>
<text text-anchor="middle" x="262" y="-228.2" font-family="Times,serif" font-size="11.00" fill="gray">Global</text>
</g>
<!-- \\SN_Type_Page -->
<g id="node1" class="node"><title>\\SN_Type_Page</title>
<polygon fill="none" stroke="black" points="309.713,-214 214.287,-214 214.287,-178 309.713,-178 309.713,-214"/>
<text text-anchor="middle" x="262" y="-192.7" font-family="Courier,monospace" font-size="11.00">SN_Type_Page</text>
</g>
<!-- \\SN_Type_Base -->
<g id="node5" class="node"><title>\\SN_Type_Base</title>
<ellipse fill="none" stroke="black" cx="68" cy="-142" rx="67.411" ry="18"/>
<text text-anchor="middle" x="68" y="-137.8" font-family="Times,serif" font-size="14.00" fill="gray">\SN_Type_Base</text>
</g>
<!-- \\SN_Type_Page&#45;&gt;\\SN_Type_Base -->
<g id="edge1" class="edge"><title>\\SN_Type_Page&#45;&gt;\\SN_Type_Base</title>
<path fill="none" stroke="black" d="M214.032,-182.79C187.119,-175.221 153.178,-165.675 124.898,-157.721"/>
<polygon fill="none" stroke="black" points="125.726,-154.318 115.152,-154.98 123.831,-161.057 125.726,-154.318"/>
</g>
<!-- \\SN_Type_Post -->
<g id="node2" class="node"><title>\\SN_Type_Post</title>
<polygon fill="none" stroke="black" points="309.713,-160 214.287,-160 214.287,-124 309.713,-124 309.713,-160"/>
<text text-anchor="middle" x="262" y="-138.7" font-family="Courier,monospace" font-size="11.00">SN_Type_Post</text>
</g>
<!-- \\SN_Type_Post&#45;&gt;\\SN_Type_Base -->
<g id="edge2" class="edge"><title>\\SN_Type_Post&#45;&gt;\\SN_Type_Base</title>
<path fill="none" stroke="black" d="M214.032,-142C193.53,-142 168.949,-142 145.9,-142"/>
<polygon fill="none" stroke="black" points="145.786,-138.5 135.786,-142 145.786,-145.5 145.786,-138.5"/>
</g>
<!-- \\SN_Type_Stub -->
<g id="node3" class="node"><title>\\SN_Type_Stub</title>
<polygon fill="none" stroke="black" points="309.713,-106 214.287,-106 214.287,-70 309.713,-70 309.713,-106"/>
<text text-anchor="middle" x="262" y="-84.7" font-family="Courier,monospace" font-size="11.00">SN_Type_Stub</text>
</g>
<!-- \\SN_Type_Stub&#45;&gt;\\SN_Type_Base -->
<g id="edge3" class="edge"><title>\\SN_Type_Stub&#45;&gt;\\SN_Type_Base</title>
<path fill="none" stroke="black" d="M214.032,-101.21C187.119,-108.779 153.178,-118.325 124.898,-126.279"/>
<polygon fill="none" stroke="black" points="123.831,-122.943 115.152,-129.02 125.726,-129.682 123.831,-122.943"/>
</g>
<!-- \\SN_Stub_Widget -->
<g id="node4" class="node"><title>\\SN_Stub_Widget</title>
<polygon fill="none" stroke="black" points="316.416,-52 207.584,-52 207.584,-16 316.416,-16 316.416,-52"/>
<text text-anchor="middle" x="262" y="-30.7" font-family="Courier,monospace" font-size="11.00">SN_Stub_Widget</text>
</g>
<!-- \\WP_Widget -->
<g id="node6" class="node"><title>\\WP_Widget</title>
<ellipse fill="none" stroke="black" cx="68" cy="-34" rx="55.8611" ry="18"/>
<text text-anchor="middle" x="68" y="-29.8" font-family="Times,serif" font-size="14.00" fill="gray">\WP_Widget</text>
</g>
<!-- \\SN_Stub_Widget&#45;&gt;\\WP_Widget -->
<g id="edge4" class="edge"><title>\\SN_Stub_Widget&#45;&gt;\\WP_Widget</title>
<path fill="none" stroke="black" d="M207.772,-34C184.952,-34 158.079,-34 134.089,-34"/>
<polygon fill="none" stroke="black" points="134.004,-30.5001 124.004,-34 134.004,-37.5001 134.004,-30.5001"/>
</g>
</g>
</svg>
